<svg xmlns="http://www.w3.org/2000/svg" width="584.624" height="536.25" viewBox="0 0 584.624 536.25"  style="position:absolute">
    <defs>

    </defs>
    <clipPath id="Kształt_316_1">
        <path
                d="M770.961,271.979c64.453,1.01,119.856,21.622,137.41,33.462,37.491,25.289,65.3,64.79,80.465,110.3,20.824,62.473,6.437,110.448-7.428,178.466C960.2,698.249,965.24,768.188,920.75,797.461c-20.254,13.327-87.688,17.991-174.548-8.675-42.687-13.1-104.666-52.189-167.12-55.771-27.989-1.605-93.1,19.559-125.031-2.478-53-36.582-46.353-150.029-16.093-228.04,10.335-26.644,42.759-78.5,86.655-123.935,34.611-35.827,75.073-64.971,96.558-75.6C658.5,284.493,706.9,270.975,770.961,271.979Z"
                transform="translate(-414.688 -271.906)"/>
    </clipPath>
</svg>
